<svg id="Layer_1" data-name="Layer 1" xmlns="http://www.w3.org/2000/svg" viewBox="0 0 100 100"><defs><style>.cls-1{fill:#04bbc7;}.cls-2{fill:#8a909b;}</style></defs><title>wee-aliens</title><rect class="cls-1" x="8.71" y="31.82" width="9.91" height="9.91" transform="translate(-24.45 27.49) rotate(-55.93)"/><rect class="cls-1" x="15.71" y="9.5" width="26.11" height="9.91" transform="translate(0.68 30.18) rotate(-55.93)"/><rect class="cls-1" x="39.36" y="20.3" width="8.95" height="9.91" transform="translate(-1.64 47.41) rotate(-55.93)"/><polygon class="cls-2" points="36.01 67.77 50.71 46.04 47.67 43.98 52.66 36.61 37.3 26.22 32.77 32.91 17.41 22.53 12.41 29.92 20.62 35.47 10.46 50.49 18.34 55.82 12.95 63.79 20.43 68.85 25.82 60.88 36.01 67.77"/><rect class="cls-1" x="24.08" y="42.19" width="9.91" height="9.91" transform="translate(-26.29 44.78) rotate(-55.93)"/><rect class="cls-1" x="67.06" y="67.89" width="9.92" height="9.92" transform="translate(-28.65 91.8) rotate(-55.99)"/><rect class="cls-1" x="75.16" y="49.67" width="26.11" height="9.91" transform="translate(-6.45 97.1) rotate(-55.93)"/><rect class="cls-1" x="68.09" y="39.71" width="8.95" height="9.91" transform="translate(-5.08 79.75) rotate(-55.93)"/><polygon class="cls-2" points="36.01 67.77 50.71 46.04 53.75 48.09 58.74 40.72 74.1 51.11 69.57 57.8 84.93 68.19 79.93 75.58 71.72 70.03 61.57 85.05 53.69 79.72 48.3 87.69 40.82 82.63 46.21 74.66 36.01 67.77"/><rect class="cls-1" x="52.81" y="61.6" width="9.91" height="9.91" transform="translate(-29.73 77.12) rotate(-55.93)"/><rect class="cls-1" x="24" y="48.07" width="8.84" height="61.57" transform="translate(-52.82 58.22) rotate(-55.93)"/></svg>