<svg id="Layer_1" data-name="Layer 1" xmlns="http://www.w3.org/2000/svg" viewBox="0 0 100 100"><defs><style>.cls-1{fill:#8a909b;}.cls-2{fill:#04bbc7;}</style></defs><title>wee-aliens</title><rect class="cls-1" x="5.5" y="20.29" width="64.48" height="35.9" transform="translate(-15.62 44.52) rotate(-52.09)"/><rect class="cls-1" x="58.54" y="26.32" width="26.38" height="8.08" transform="translate(3.71 68.3) rotate(-52.09)"/><rect class="cls-1" x="84.03" y="21.95" width="8.06" height="19.03" transform="translate(9.13 81.61) rotate(-52.09)"/><rect class="cls-1" x="61.05" y="41.4" width="19.05" height="9.52" transform="translate(-9.21 73.48) rotate(-52.09)"/><rect class="cls-1" x="25.13" y="69.3" width="26.38" height="8.08" transform="translate(-43.09 58.51) rotate(-52.09)"/><rect class="cls-1" x="39.35" y="79.39" width="8.06" height="19.03" transform="translate(-53.42 68.5) rotate(-52.09)"/><rect class="cls-1" x="43.82" y="63.58" width="19.05" height="9.52" transform="translate(-33.35 68.44) rotate(-52.09)"/><rect class="cls-2" x="16.19" y="14.83" width="9.99" height="21.2" transform="translate(-11.9 26.52) rotate(-52.09)"/><rect class="cls-2" x="46.73" y="20.5" width="9.53" height="9.53" transform="translate(-0.08 50.37) rotate(-52.09)"/><rect class="cls-2" x="23.77" y="49.98" width="9.53" height="9.53" transform="translate(-32.19 43.62) rotate(-52.09)"/></svg>